<?xml version="1.0" encoding="utf-8"?>
<!-- Generator: Adobe Illustrator 23.0.4, SVG Export Plug-In . SVG Version: 6.00 Build 0)  -->
<svg version="1.1" id="Layer_1" xmlns="http://www.w3.org/2000/svg" xmlns:xlink="http://www.w3.org/1999/xlink" x="0px" y="0px"
	 viewBox="0 0 3957 1754" style="enable-background:new 0 0 3957 1754;" xml:space="preserve">
<style type="text/css">
	.st0{fill:none;stroke:#000000;stroke-width:48;}
</style>
<g>
	<path class="st0" d="M35,986.8h1150"/>
	<path class="st0" d="M17,990.9C255.5,766.7,500.4,549,748.9,336.3c142-121.5,286.7-259.6,476.1-298.9c46.5-9.7,96.4-10.1,142.2,3.6
		c118,35.3,145,142.6,137.7,253.2c-5,75.6-28.3,152.7-45.8,226.3c-19,80-39.9,159.6-62.5,238.7c-19.7,68.8-35.1,139.4-52.7,208.8
		c-37.2,146.1-81.1,292.1-110.1,440c-19.5,99.1-35.8,213.1,64.8,276.4c65.9,41.5,152.2,27.9,225.4,1.5
		c128.7-46.4,242.1-126.8,351.2-209.5c126.9-96.3,248.6-198.4,365.7-306.5c9.4-8.7,18.8-17.4,28.2-26.2c22.1-20.6,44-41.4,65.9-62.2
		c32.1-30.6,64-61.3,95.9-92"/>
	<path class="st0" d="M1468,986.6h980"/>
	<path d="M1030,1010.5v-47.8h230l-52.7,47.8H1030z"/>
	<path d="M1641,962.8v47.8h-230l52.7-47.8H1641z"/>
	<path d="M1627.2,519.4L1557.5,878h151.2c130.1,0,212.8-82.6,212.8-207.4c0-94.5-63.2-151.2-170.6-151.2H1627.2z M1881,673.9
		c0,100.4-66.4,167.9-170.6,167.9h-105.8l55.6-286.2h85.9C1831.9,555.6,1881,599.4,1881,673.9z M2190.2,878l49.1-252.2h-31.9
		l-10.8,52.9h-1.1c-14-35.6-49.7-58.3-103.7-58.3c-79.9,0-142.6,64.8-142.6,148c0,67.5,45.4,115,114.5,115
		c42.1,0,77.8-16.2,101.5-43.7h1.1l-7,38.3H2190.2z M2070.9,851c-51.3,0-85.3-33.5-85.3-83.2c0-66.4,48.6-115,110.2-115
		c51.3,0,85.3,34,85.3,83.7C2181,802.9,2132.4,851,2070.9,851z M2360.7,657.1h84.8l5.9-31.3h-84.8l13-67.5h-29.2l-18.9,67.5h-49.1
		l-6.5,31.3h48.6L2297,798.1c-1.6,8.1-2.2,16.2-2.2,23.2c0,39.4,23.2,62.1,67.5,62.1c17.8,0,29.7-3.2,40.5-8.1l8.1-40h-1.6
		c-13,11.3-28.1,15.7-41.6,15.7c-22.7,0-36.2-13.5-36.2-37.3c0-4.9,0.5-9.7,1.6-15.1L2360.7,657.1z M2704.9,878l49.1-252.2h-31.9
		l-10.8,52.9h-1.1c-14-35.6-49.7-58.3-103.7-58.3c-79.9,0-142.6,64.8-142.6,148c0,67.5,45.4,115,114.5,115
		c42.1,0,77.8-16.2,101.5-43.7h1.1l-7,38.3H2704.9z M2585.6,851c-51.3,0-85.3-33.5-85.3-83.2c0-66.4,48.6-115,110.2-115
		c51.3,0,85.3,34,85.3,83.7C2695.7,802.9,2647.1,851,2585.6,851z M2778.7,878h36.2l73.4-378h-36.2L2778.7,878z M2931,980.6
		l231.7-354.8h-39.4l-129.1,202.5h-1.1l-49.7-202.5h-37.3l61.6,241.9l-76.1,112.9H2931z M3251.9,657.1h84.8l5.9-31.3h-84.8l13-67.5
		h-29.2l-18.9,67.5h-49.1l-6.5,31.3h48.6l-27.5,140.9c-1.6,8.1-2.2,16.2-2.2,23.2c0,39.4,23.2,62.1,67.5,62.1
		c17.8,0,29.7-3.2,40.5-8.1l8.1-40h-1.6c-13,11.3-28.1,15.7-41.6,15.7c-22.7,0-36.2-13.5-36.2-37.3c0-4.9,0.5-9.7,1.6-15.1
		L3251.9,657.1z M3436.2,521.1c-14.6,0-27,11.9-27,27.5c0,13,8.6,22.1,22.7,22.1c14.6,0,27-11.3,27-27
		C3458.9,530.2,3450.2,521.1,3436.2,521.1z M3351.4,878h36.2l49.1-252.2h-36.2L3351.4,878z M3618.8,620.4
		c-86.4,0-150.1,63.7-150.1,147.4c0,68,47,115.6,123.7,115.6c34,0,57.8-9.2,76.1-22.1l8.1-43.2h-1.6c-24.3,22.1-45.9,32.9-81.5,32.9
		c-52.4,0-88.6-34.6-88.6-85.3c0-64.3,48.6-112.9,115.6-112.9c33.5,0,63.2,10.3,80.5,32.9h1.6l7.6-36.7
		C3691.7,630.7,3655.5,620.4,3618.8,620.4z M3847.3,620.4c-63.7,0-106.4,35.1-106.4,88c0,36.2,21.1,52.9,82.1,57.8
		c47.5,3.8,62.6,13,62.6,34.6c0,30.2-28.6,50.2-71.8,50.2c-42.1,0-72.9-10.8-90.7-31.9h-1.6l-7.6,36.2
		c21.1,17.8,57.8,28.1,99.4,28.1c67,0,107.5-32.9,107.5-86.9c0-40.5-23.2-59.9-86.9-63.7c-43.2-2.7-57.2-11.3-57.2-29.2
		c0-29.2,29.7-50.8,70.2-50.8c35.6,0,62.1,8.6,78.3,25.4h1.6l7-35.1C3917.5,629.6,3883,620.4,3847.3,620.4z"/>
</g>
</svg>
