<svg width="295" height="131" viewBox="0 0 295 131" fill="none" xmlns="http://www.w3.org/2000/svg">
<path d="M3.33832 73.5234L88.8588 73.5234" stroke="black" stroke-width="3.56955"/>
<path d="M2 73.8314C252.887 -162.011 -37.8376 275.913 181.593 73.8311" stroke="black" stroke-width="3.56955"/>
<path d="M109.904 73.5117L182.782 73.5117" stroke="black" stroke-width="3.56955"/>
<path d="M77.3318 75.2896V71.7386H94.4359L90.5172 75.2896H77.3318Z" fill="black"/>
<path d="M122.769 71.7383V75.2892H105.665L109.584 71.7383H122.769Z" fill="black"/>
<path d="M121.743 38.4527L116.563 65.1172H127.807C137.485 65.1172 143.629 58.9731 143.629 49.6967C143.629 42.6692 138.931 38.4527 130.939 38.4527H121.743ZM140.617 49.9377C140.617 57.407 135.678 62.4266 127.927 62.4266H120.057L124.193 41.1432H130.578C136.963 41.1432 140.617 44.396 140.617 49.9377ZM163.611 65.1172L167.265 46.3637H164.896L164.093 50.2991H164.012C162.968 47.6487 160.318 45.9621 156.302 45.9621C150.359 45.9621 145.701 50.781 145.701 56.9652C145.701 61.9849 149.074 65.5188 154.214 65.5188C157.346 65.5188 159.997 64.314 161.764 62.266H161.844L161.322 65.1172H163.611ZM154.736 63.1093C150.921 63.1093 148.391 60.6196 148.391 56.9251C148.391 51.9857 152.005 48.3715 156.583 48.3715C160.398 48.3715 162.928 50.9015 162.928 54.5959C162.928 59.5353 159.314 63.1093 154.736 63.1093ZM176.289 48.6928H182.593L183.035 46.3637H176.73L177.694 41.344H175.526L174.12 46.3637H170.466L169.984 48.6928H173.598L171.55 59.1739C171.43 59.7762 171.389 60.3786 171.389 60.9007C171.389 63.8321 173.116 65.5188 176.409 65.5188C177.734 65.5188 178.618 65.2778 179.421 64.9164L180.023 61.9448H179.903C178.939 62.7881 177.815 63.1093 176.811 63.1093C175.124 63.1093 174.12 62.1054 174.12 60.3385C174.12 59.977 174.16 59.6156 174.241 59.214L176.289 48.6928ZM201.886 65.1172L205.54 46.3637H203.171L202.368 50.2991H202.287C201.243 47.6487 198.593 45.9621 194.577 45.9621C188.634 45.9621 183.976 50.781 183.976 56.9652C183.976 61.9849 187.349 65.5188 192.489 65.5188C195.621 65.5188 198.272 64.314 200.039 62.266H200.119L199.597 65.1172H201.886ZM193.011 63.1093C189.196 63.1093 186.666 60.6196 186.666 56.9251C186.666 51.9857 190.28 48.3715 194.858 48.3715C198.673 48.3715 201.203 50.9015 201.203 54.5959C201.203 59.5353 197.589 63.1093 193.011 63.1093ZM207.375 65.1172H210.066L215.527 37.007H212.837L207.375 65.1172ZM218.704 72.7471L235.931 46.3637H233L223.402 61.4227H223.322L219.628 46.3637H216.857L221.435 64.3542L215.772 72.7471H218.704ZM242.564 48.6928H248.869L249.31 46.3637H243.006L243.97 41.344H241.801L240.396 46.3637H236.741L236.259 48.6928H239.874L237.825 59.1739C237.705 59.7762 237.665 60.3786 237.665 60.9007C237.665 63.8321 239.392 65.5188 242.685 65.5188C244.01 65.5188 244.893 65.2778 245.696 64.9164L246.299 61.9448H246.178C245.214 62.7881 244.09 63.1093 243.086 63.1093C241.399 63.1093 240.396 62.1054 240.396 60.3385C240.396 59.977 240.436 59.6156 240.516 59.214L242.564 48.6928ZM256.269 38.5731C255.185 38.5731 254.261 39.4566 254.261 40.6212C254.261 41.5849 254.904 42.2676 255.948 42.2676C257.032 42.2676 257.956 41.4243 257.956 40.2597C257.956 39.2558 257.313 38.5731 256.269 38.5731ZM249.964 65.1172H252.655L256.309 46.3637H253.619L249.964 65.1172ZM269.846 45.9621C263.421 45.9621 258.683 50.7007 258.683 56.9251C258.683 61.9849 262.176 65.5188 267.879 65.5188C270.409 65.5188 272.175 64.8361 273.541 63.8723L274.143 60.6597H274.023C272.216 62.3062 270.609 63.1093 267.959 63.1093C264.064 63.1093 261.373 60.5392 261.373 56.7644C261.373 51.9857 264.987 48.3715 269.967 48.3715C272.457 48.3715 274.665 49.1345 275.95 50.8211H276.071L276.633 48.0904C275.268 46.7251 272.577 45.9621 269.846 45.9621ZM286.844 45.9621C282.106 45.9621 278.933 48.5723 278.933 52.5078C278.933 55.1983 280.499 56.4432 285.037 56.8046C288.571 57.0857 289.695 57.7684 289.695 59.3747C289.695 61.6235 287.567 63.1093 284.354 63.1093C281.222 63.1093 278.933 62.3062 277.608 60.74H277.488L276.925 63.4306C278.491 64.7558 281.222 65.5188 284.314 65.5188C289.294 65.5188 292.306 63.0692 292.306 59.0534C292.306 56.0416 290.579 54.5959 285.84 54.3148C282.628 54.1141 281.584 53.4715 281.584 52.1463C281.584 49.9778 283.792 48.3715 286.804 48.3715C289.454 48.3715 291.422 49.0141 292.627 50.2589H292.747L293.269 47.6487C292.065 46.6448 289.495 45.9621 286.844 45.9621Z" fill="black"/>
</svg>
